# xmcd
#
# Track frame offsets: 
#        150
#        9889
#        24736
#        49795
#        68270
#        77789
#        91066
#        111578
#        122784
#        141054
#        153975
#
# Disc length: 2273 seconds
#
# Revision: 0
# Processed by: cddbd v1.5.2PL0 Copyright (c) Steve Scherf et al.
# Submitted via: ExactAudioCopy v1.0b1
#
DISCID=8108df0b
DTITLE=Tim Postgate Hornband - Banjo Hockey
DYEAR=2009
DGENRE=Bluegrass
TTITLE0=Stolen Ice Cream Truck
TTITLE1=Banjo Z (for Uncle Ron)
TTITLE2=The Big Push
TTITLE3=Big Top Blues
TTITLE4=Eco
TTITLE5=Moosamin Eh!
TTITLE6=Spike's New Altitude
TTITLE7=My Car Free Ways
TTITLE8=Going to the Island
TTITLE9=City Folk
TTITLE10=Kim's Hollar
EXTD=
EXTT0=
EXTT1=
EXTT2=
EXTT3=
EXTT4=
EXTT5=
EXTT6=
EXTT7=
EXTT8=
EXTT9=
EXTT10=
PLAYORDER=
